<svg width="20" height="20" viewBox="0 0 20 20" fill="none" xmlns="http://www.w3.org/2000/svg">
<path d="M10 1.46565C14.8344 1.46565 18.75 5.38128 18.75 10.2157C18.7488 13.975 16.3506 17.315 12.7894 18.5169C12.3519 18.6044 12.1875 18.3307 12.1875 18.1013C12.1875 17.8057 12.1988 16.865 12.1988 15.695C12.1988 14.875 11.9256 14.35 11.6081 14.0763C13.555 13.8575 15.6006 13.1138 15.6006 9.75628C15.6006 8.79378 15.2613 8.0169 14.7038 7.40503C14.7913 7.18628 15.0975 6.2894 14.6163 5.08628C14.6163 5.08628 13.8831 4.84565 12.21 5.98315C11.51 5.78628 10.7663 5.68815 10.0225 5.68815C9.27875 5.68815 8.535 5.78628 7.835 5.98315C6.16188 4.8569 5.42875 5.08628 5.42875 5.08628C4.9475 6.2894 5.25375 7.18628 5.34125 7.40503C4.78375 8.01753 4.44438 8.80503 4.44438 9.75628C4.44438 13.1032 6.47875 13.8582 8.42563 14.0769C8.17375 14.2957 7.94438 14.6788 7.8675 15.2469C7.36438 15.4769 6.10625 15.8488 5.31938 14.525C5.155 14.2625 4.66313 13.6175 3.97438 13.6282C3.24125 13.6394 3.67938 14.0438 3.985 14.2075C4.35688 14.415 4.78313 15.1919 4.88188 15.4438C5.05688 15.9357 5.62563 16.8769 7.82375 16.4719C7.82375 17.205 7.835 17.8938 7.835 18.1013C7.835 18.3313 7.67063 18.5932 7.23313 18.5169C3.65875 17.3269 1.24813 13.9825 1.25 10.215C1.25 5.38065 5.16563 1.46565 10 1.46565Z" fill="#171717"/>
</svg>
