<svg width="20" height="20" viewBox="0 0 20 20" fill="none" xmlns="http://www.w3.org/2000/svg">
<path d="M10.1787 8.40918V11.7978H14.9839C14.7729 12.8876 14.1397 13.8103 13.1901 14.4308L16.0878 16.6342C17.7761 15.107 18.7502 12.8638 18.7502 10.199C18.7502 9.57859 18.6934 8.98195 18.5878 8.40928L10.1787 8.40918Z" fill="#4285F4"/>
<path d="M5.17494 11.6655L4.52138 12.1557L2.20801 13.9216C3.67718 16.7773 6.68835 18.75 10.1786 18.75C12.5893 18.75 14.6104 17.9705 16.0877 16.6341L13.19 14.4307C12.3945 14.9557 11.3799 15.2739 10.1786 15.2739C7.85718 15.2739 5.88482 13.7387 5.17859 11.6705L5.17494 11.6655Z" fill="#34A853"/>
<path d="M2.20773 6.07855C1.59899 7.25577 1.25 8.5842 1.25 10.0001C1.25 11.416 1.59899 12.7444 2.20773 13.9216C2.20773 13.9295 5.1786 11.6625 5.1786 11.6625C5.00003 11.1375 4.89448 10.5807 4.89448 9.99999C4.89448 9.41923 5.00003 8.86245 5.1786 8.33745L2.20773 6.07855Z" fill="#FBBC05"/>
<path d="M10.1788 4.73408C11.4938 4.73408 12.6626 5.17952 13.5961 6.03862L16.1529 3.53298C14.6025 2.1171 12.5896 1.25 10.1788 1.25C6.68854 1.25 3.67718 3.21476 2.20801 6.0784L5.17878 8.33748C5.88492 6.26929 7.85737 4.73408 10.1788 4.73408Z" fill="#EA4335"/>
</svg>
